<?xml version="1.0" encoding="UTF-8" standalone="no"?>
<!-- Created with Inkscape (http://www.inkscape.org/) -->

<svg
   width="210mm"
   height="297mm"
   viewBox="0 0 210 297"
   version="1.1"
   id="svg1"
   xml:space="preserve"
   sodipodi:docname="snowman.svg"
   inkscape:version="1.3.2 (091e20ef0f, 2023-11-25, custom)"
   xmlns:inkscape="http://www.inkscape.org/namespaces/inkscape"
   xmlns:sodipodi="http://sodipodi.sourceforge.net/DTD/sodipodi-0.dtd"
   xmlns="http://www.w3.org/2000/svg"
   xmlns:svg="http://www.w3.org/2000/svg"><sodipodi:namedview
     id="namedview1"
     pagecolor="#ffffff"
     bordercolor="#666666"
     borderopacity="1.0"
     inkscape:showpageshadow="2"
     inkscape:pageopacity="0.0"
     inkscape:pagecheckerboard="0"
     inkscape:deskcolor="#d1d1d1"
     inkscape:document-units="mm"
     inkscape:zoom="3.0918148"
     inkscape:cx="584.28467"
     inkscape:cy="375.50761"
     inkscape:window-width="2560"
     inkscape:window-height="1412"
     inkscape:window-x="1920"
     inkscape:window-y="0"
     inkscape:window-maximized="1"
     inkscape:current-layer="layer1"
     showguides="true"><sodipodi:guide
       position="81.959851,249.89074"
       orientation="1,0"
       id="guide17"
       inkscape:locked="false" /></sodipodi:namedview><defs
     id="defs1"><inkscape:path-effect
       effect="simplify"
       id="path-effect8"
       is_visible="true"
       lpeversion="1.3"
       threshold="7.93651"
       steps="1"
       smooth_angles="360"
       helper_size="0"
       simplify_individual_paths="false"
       simplify_just_coalesce="false" /><inkscape:path-effect
       effect="powerstroke"
       id="path-effect7"
       is_visible="true"
       lpeversion="1.3"
       scale_width="1"
       interpolator_type="CentripetalCatmullRom"
       interpolator_beta="0.75"
       start_linecap_type="round"
       end_linecap_type="round"
       offset_points="0.5,0"
       linejoin_type="spiro"
       miter_limit="4"
       not_jump="true"
       sort_points="true"
       message="&lt;b&gt;Ctrl + click&lt;/b&gt; on existing node and move it" /><inkscape:path-effect
       effect="simplify"
       id="path-effect6"
       is_visible="true"
       lpeversion="1.3"
       threshold="0.012"
       steps="1"
       smooth_angles="0"
       helper_size="0"
       simplify_individual_paths="false"
       simplify_just_coalesce="false"
       step="1" /></defs><g
     inkscape:label="Layer 1"
     inkscape:groupmode="layer"
     id="layer1"><path
       style="fill:#000000;stroke:none;stroke-opacity:1;stroke-linejoin:miter;stroke-linecap:butt;stroke-width:1px"
       d="m 301.6009,190.57483 c 3.85786,0.95815 7.71573,1.91629 11.57359,2.87444"
       id="path7"
       inkscape:path-effect="#path-effect8"
       inkscape:original-d="m 301.6009,190.57483 11.57359,2.87444" /><circle
       style="font-variation-settings:normal;opacity:1;fill:#ff0000;fill-opacity:1;stroke:none;stroke-width:3.96875;stroke-linecap:butt;stroke-linejoin:round;stroke-miterlimit:4;stroke-dasharray:none;stroke-dashoffset:0;stroke-opacity:1;paint-order:normal"
       id="path22"
       cx="134.69044"
       cy="83.625282"
       r="2.2655339"
       inkscape:export-filename="payer_blue.png"
       inkscape:export-xdpi="10.05886"
       inkscape:export-ydpi="10.05886" /><circle
       style="font-variation-settings:normal;fill:#ff0000;fill-opacity:1;stroke:none;stroke-width:3.96875;stroke-linecap:butt;stroke-linejoin:round;stroke-miterlimit:4;stroke-dasharray:none;stroke-dashoffset:0;stroke-opacity:1;paint-order:normal"
       id="path22-2"
       cx="144.77179"
       cy="83.626465"
       r="2.2655339" /><g
       id="path23"
       style="stroke-width:3.96875;stroke-dasharray:none"
       transform="translate(38.724559,14.600706)" /><g
       id="g49"
       style="stroke:#ff0000"><path
         style="fill:none;fill-opacity:0.308021;stroke:#ff0000;stroke-width:3.96875;stroke-linecap:round;stroke-linejoin:round;stroke-dasharray:none;stroke-opacity:1;paint-order:markers fill stroke"
         d="m 130.80442,73.317922 v -9.356386 c 5.29208,2.994065 10.61815,2.379641 15.96085,0 v 9.218758"
         id="path29" /><g
         id="g48"
         style="stroke:#ff0000"><path
           id="path31"
           style="fill:none;fill-opacity:0.307372;stroke:#ff0000;stroke-width:3.96875;stroke-linecap:round;stroke-linejoin:round;stroke-dasharray:none;stroke-opacity:1;paint-order:markers fill stroke"
           d="m 138.37171,60.815456 c -2.49486,0.0362 -5.01547,1.007963 -7.5675,3.146061 v 5.822901 c -4.71822,0.851609 -7.87364,2.400251 -7.87342,4.169254 0.006,1.385181 1.98481,2.703939 5.44049,3.625619 0.0133,0.0035 0.0285,0.0063 0.0419,0.0098 h -0.008 c -0.0735,-0.01722 -3.21106,3.331743 -3.22823,8.728666 1.4e-4,5.769162 3.54989,10.721594 8.61757,12.863298 -8.80599,2.530437 -15.24093,10.526377 -15.24093,20.005497 -10e-6,11.51218 9.4878,20.84473 21.19198,20.84473 11.70419,0 21.19251,-9.33255 21.19251,-20.84473 0,-9.6282 -6.63867,-17.72734 -15.65796,-20.121769 4.92694,-2.200002 8.35542,-7.078238 8.35556,-12.747026 -4.7e-4,-3.221548 -1.13082,-6.344332 -3.20032,-8.84132 l -0.0873,5.16e-4 c 3.24145,-0.915568 5.08825,-2.188846 5.10098,-3.523299 2.3e-4,-1.8662 -3.51094,-3.487003 -8.66459,-4.303096 h -0.0191 v -5.689059 c -2.77128,-2.026442 -5.56629,-3.18709 -8.3938,-3.146061 z"
           inkscape:export-filename="payer_red.png"
           inkscape:export-xdpi="10.05886"
           inkscape:export-ydpi="10.05886" /><path
           style="fill:none;stroke:#ff0000;stroke-width:3.96875;stroke-linecap:round;stroke-linejoin:round;stroke-opacity:1;stroke-dasharray:none"
           d="m 155.94809,104.82025 13.59587,-12.258325 -1.89156,-7.448928 1.87651,7.451357 4.2913,-6.223752 -4.31446,6.223173 7.35065,2.171543"
           id="path47"
           sodipodi:nodetypes="ccccccc" /><path
           style="fill:none;stroke:#ff0000;stroke-width:3.96875;stroke-linecap:round;stroke-linejoin:round;stroke-dasharray:none;stroke-opacity:1"
           d="m 123.9397,104.82025 -13.59587,-12.258325 1.89156,-7.448928 -1.87651,7.451357 -4.2913,-6.223752 4.31446,6.223173 -7.35065,2.171543"
           id="path47-9"
           sodipodi:nodetypes="ccccccc" /><path
           style="fill:none;stroke:#ff0000;stroke-width:2.64583333;stroke-linecap:round;stroke-linejoin:round;stroke-opacity:1;stroke-dasharray:none;paint-order:fill markers stroke"
           d="m 133.87852,91.612023 c 3.58479,3.069921 7.13611,3.157175 10.79458,-0.222909"
           id="path48"
           sodipodi:nodetypes="cc" /></g></g></g></svg>
