<?xml version="1.0" encoding="UTF-8" standalone="no"?>
<!-- Created with Inkscape (http://www.inkscape.org/) -->

<svg
   width="210mm"
   height="297mm"
   viewBox="0 0 210 297"
   version="1.1"
   id="svg1"
   xml:space="preserve"
   sodipodi:docname="snowman.svg"
   inkscape:version="1.3.2 (091e20ef0f, 2023-11-25, custom)"
   xmlns:inkscape="http://www.inkscape.org/namespaces/inkscape"
   xmlns:sodipodi="http://sodipodi.sourceforge.net/DTD/sodipodi-0.dtd"
   xmlns="http://www.w3.org/2000/svg"
   xmlns:svg="http://www.w3.org/2000/svg"><sodipodi:namedview
     id="namedview1"
     pagecolor="#ffffff"
     bordercolor="#666666"
     borderopacity="1.0"
     inkscape:showpageshadow="2"
     inkscape:pageopacity="0.0"
     inkscape:pagecheckerboard="0"
     inkscape:deskcolor="#d1d1d1"
     inkscape:document-units="mm"
     inkscape:zoom="2.3425847"
     inkscape:cx="548.75284"
     inkscape:cy="364.55459"
     inkscape:window-width="2560"
     inkscape:window-height="1412"
     inkscape:window-x="1920"
     inkscape:window-y="0"
     inkscape:window-maximized="1"
     inkscape:current-layer="layer1"
     showguides="true"><sodipodi:guide
       position="81.959851,249.89074"
       orientation="1,0"
       id="guide17"
       inkscape:locked="false" /></sodipodi:namedview><defs
     id="defs1"><inkscape:path-effect
       effect="simplify"
       id="path-effect8"
       is_visible="true"
       lpeversion="1.3"
       threshold="7.93651"
       steps="1"
       smooth_angles="360"
       helper_size="0"
       simplify_individual_paths="false"
       simplify_just_coalesce="false" /><inkscape:path-effect
       effect="powerstroke"
       id="path-effect7"
       is_visible="true"
       lpeversion="1.3"
       scale_width="1"
       interpolator_type="CentripetalCatmullRom"
       interpolator_beta="0.75"
       start_linecap_type="round"
       end_linecap_type="round"
       offset_points="0.5,0"
       linejoin_type="spiro"
       miter_limit="4"
       not_jump="true"
       sort_points="true"
       message="&lt;b&gt;Ctrl + click&lt;/b&gt; on existing node and move it" /><inkscape:path-effect
       effect="simplify"
       id="path-effect6"
       is_visible="true"
       lpeversion="1.3"
       threshold="0.012"
       steps="1"
       smooth_angles="0"
       helper_size="0"
       simplify_individual_paths="false"
       simplify_just_coalesce="false"
       step="1" /></defs><g
     inkscape:label="Layer 1"
     inkscape:groupmode="layer"
     id="layer1"><path
       style="fill:#ffffff;fill-opacity:1;stroke:#000000;stroke-width:3.96875;stroke-linecap:round;stroke-linejoin:round;stroke-dasharray:none;stroke-opacity:1;paint-order:markers fill stroke"
       d="m 167.25504,104.98102 c 0,11.5122 -9.48813,20.84469 -21.19234,20.84469 -11.70421,0 -21.19235,-9.33249 -21.19234,-20.84469 0,-11.512199 9.48813,-20.844681 21.19234,-20.844679 11.70421,10e-7 21.19234,9.332482 21.19234,20.844679 z"
       id="path32"
       inkscape:export-filename="payer_green.png"
       inkscape:export-xdpi="10.05886"
       inkscape:export-ydpi="10.05886" /><path
       style="fill:#ffffff;fill-opacity:0.998345;stroke:#000000;stroke-width:3.96875;stroke-linecap:round;stroke-linejoin:round;stroke-dasharray:none;stroke-opacity:1;paint-order:markers fill stroke"
       d="m 134.72205,63.383465 c -0.0735,-0.01722 -3.21106,3.331734 -3.22823,8.728669 1.9e-4,7.729501 6.37069,13.99543 14.22911,13.995529 7.85862,1.79e-4 14.22943,-6.265832 14.22962,-13.995529 -4.7e-4,-3.221556 -1.13082,-6.344326 -3.20032,-8.84132"
       id="path31" /><path
       style="fill:#000000;stroke:none;stroke-opacity:1;stroke-linejoin:miter;stroke-linecap:butt;stroke-width:1px"
       d="m 301.6009,190.57483 c 3.85786,0.95815 7.71573,1.91629 11.57359,2.87444"
       id="path7"
       inkscape:path-effect="#path-effect8"
       inkscape:original-d="m 301.6009,190.57483 11.57359,2.87444" /><circle
       style="font-variation-settings:normal;opacity:1;vector-effect:non-scaling-stroke;fill:#000000;fill-opacity:1;stroke:none;stroke-width:0.264583;stroke-linecap:butt;stroke-linejoin:round;stroke-miterlimit:4;stroke-dasharray:none;stroke-dashoffset:0;stroke-opacity:1;-inkscape-stroke:hairline;paint-order:normal"
       id="path22"
       cx="141.0071"
       cy="69.419647"
       r="2.2655339" /><g
       id="g52"
       style="fill:#008000"><path
         id="path28"
         style="fill:#008000;fill-opacity:1;stroke:#000000;stroke-width:3.96875;stroke-linecap:round;stroke-linejoin:round;stroke-dasharray:none;stroke-opacity:1;paint-order:markers fill stroke"
         d="m 144.68837,46.609823 c -2.49486,0.0362 -5.01546,1.007961 -7.5675,3.146061 v 5.822901 c -4.71823,0.85161 -7.87364,2.400249 -7.87342,4.169254 0.006,1.385182 1.9848,2.703938 5.4405,3.625619 0.45367,0.118388 0.92896,0.229147 1.42368,0.331762 0.14808,0.03436 0.29814,0.06796 0.4501,0.10077 0.52206,0.100649 1.06297,0.192267 1.62006,0.274401 0.14518,0.02462 0.29161,0.04856 0.43925,0.07183 0.57458,0.07788 1.16383,0.145692 1.76475,0.203088 0.14936,0.01754 0.29959,0.03443 0.45062,0.05064 0.65317,0.05703 1.31766,0.101728 1.98954,0.133842 0.10519,0.0072 0.21061,0.01409 0.31626,0.02067 0.7829,0.03477 1.57324,0.05239 2.36471,0.05271 0.71867,-0.0011 1.43631,-0.01647 2.14819,-0.04599 0.34623,-0.01664 0.69059,-0.03663 1.0325,-0.05994 0.36521,-0.02005 0.72802,-0.04383 1.08779,-0.07131 0.39739,-0.03443 0.79024,-0.07339 1.1777,-0.116788 0.27747,-0.02843 0.55232,-0.05911 0.82424,-0.09199 0.42373,-0.05412 0.83959,-0.113598 1.24644,-0.178283 0.2176,-0.03368 0.43263,-0.06883 0.64492,-0.10542 0.42534,-0.07426 0.83917,-0.154274 1.24023,-0.239779 0.16329,-0.03527 0.32438,-0.07146 0.48318,-0.10852 0.42365,-0.09662 0.83118,-0.199405 1.22111,-0.307992 3.2753,-0.91665 5.13986,-2.1974 5.15266,-3.539319 2.3e-4,-1.866202 -3.51094,-3.487002 -8.66459,-4.303096 h -0.0191 v -5.689059 c -2.77128,-2.026444 -5.56629,-3.18709 -8.3938,-3.146061 z"
         inkscape:export-filename="payer_blue.png"
         inkscape:export-xdpi="10.05886"
         inkscape:export-ydpi="10.05886" /><circle
         style="font-variation-settings:normal;vector-effect:non-scaling-stroke;fill:#008000;fill-opacity:1;stroke:none;stroke-width:0.569154;stroke-linecap:butt;stroke-linejoin:round;stroke-miterlimit:4;stroke-dasharray:none;stroke-dashoffset:0;stroke-opacity:1;-inkscape-stroke:hairline;paint-order:normal"
         id="path22-77"
         cx="146.06728"
         cy="94.076645"
         r="4.8734741" /><circle
         style="font-variation-settings:normal;vector-effect:non-scaling-stroke;fill:#008000;fill-opacity:1;stroke:none;stroke-width:0.569154;stroke-linecap:butt;stroke-linejoin:round;stroke-miterlimit:4;stroke-dasharray:none;stroke-dashoffset:0;stroke-opacity:1;-inkscape-stroke:hairline;paint-order:normal"
         id="path22-77-8"
         cx="146.39"
         cy="105.39914"
         r="4.8734741" /><circle
         style="font-variation-settings:normal;vector-effect:non-scaling-stroke;fill:#008000;fill-opacity:1;stroke:none;stroke-width:0.569154;stroke-linecap:butt;stroke-linejoin:round;stroke-miterlimit:4;stroke-dasharray:none;stroke-dashoffset:0;stroke-opacity:1;-inkscape-stroke:hairline;paint-order:normal"
         id="path22-77-9"
         cx="146.69344"
         cy="117.42014"
         r="4.8734741" /></g><circle
       style="font-variation-settings:normal;vector-effect:non-scaling-stroke;fill:#000000;fill-opacity:1;stroke:none;stroke-width:0.264583;stroke-linecap:butt;stroke-linejoin:round;stroke-miterlimit:4;stroke-dasharray:none;stroke-dashoffset:0;stroke-opacity:1;-inkscape-stroke:hairline;paint-order:normal"
       id="path22-2"
       cx="151.08846"
       cy="69.42083"
       r="2.2655339" /><path
       style="fill:none;fill-opacity:0.308021;stroke:#000000;stroke-width:3.96875;stroke-linecap:round;stroke-linejoin:round;stroke-dasharray:none;stroke-opacity:1;paint-order:markers fill stroke"
       d="m 137.12109,59.112289 v -9.356386 c 5.29207,2.994065 10.61814,2.379641 15.96084,0 v 9.218758"
       id="path29" /><path
       style="fill:none;stroke:#000000;stroke-width:3.96875;stroke-linecap:round;stroke-linejoin:round;stroke-dasharray:none;stroke-opacity:1"
       d="m 161.82237,89.310249 13.59587,-12.258325 -1.89156,-7.448928 1.87651,7.451357 4.2913,-6.223752 -4.31446,6.223173 7.35065,2.171543"
       id="path47-94"
       sodipodi:nodetypes="ccccccc" /><path
       style="fill:none;stroke:#000000;stroke-width:3.96875;stroke-linecap:round;stroke-linejoin:round;stroke-dasharray:none;stroke-opacity:1"
       d="m 129.81399,89.310249 -13.59587,-12.258325 1.89156,-7.448928 -1.87651,7.451357 -4.2913,-6.223752 4.31446,6.223173 -7.35065,2.171543"
       id="path47-9-9"
       sodipodi:nodetypes="ccccccc" /><path
       style="fill:none;stroke:#000000;stroke-width:2.67229;stroke-linecap:round;stroke-linejoin:round;stroke-dasharray:none;stroke-opacity:1;paint-order:fill markers stroke"
       d="m 140.57348,76.810999 c 3.58479,3.069921 7.1361,3.157175 10.79457,-0.222909"
       id="path48-0"
       sodipodi:nodetypes="cc" /></g></svg>
